<svg width="200" height="200" viewBox="0 0 200 200" fill="none" xmlns="http://www.w3.org/2000/svg">
<g clip-path="url(#clip0_1_63)">
<rect width="200" height="200" fill="white"/>
<rect width="200" height="200" fill="url(#paint0_linear_1_63)"/>
<mask id="mask0_1_63" style="mask-type:alpha" maskUnits="userSpaceOnUse" x="27" y="27" width="140" height="140">
<path d="M133.452 87.1246L123.277 97.3091C123.575 97.8876 123.916 98.4262 124.164 99.0474C125.101 101.389 125.571 103.95 125.571 106.715V106.897C125.571 109.727 125.1 112.283 124.164 114.566C123.232 116.859 121.936 118.838 120.283 120.522C118.624 122.21 116.62 123.498 114.277 124.398C111.924 125.3 109.332 125.754 106.502 125.754H95.7554V124.856L82.3285 138.298H106.502C111.441 138.298 115.971 137.484 120.101 135.862C124.225 134.234 127.781 132.015 130.759 129.178C133.744 126.354 136.045 123.021 137.672 119.165C139.299 115.317 140.112 111.167 140.112 106.714V106.539C140.112 102.087 139.299 97.9513 137.672 94.1273C136.58 91.5638 135.155 89.2431 133.451 87.1236L133.452 87.1246Z" fill="black"/>
<path d="M95.7564 87.6801H106.503C109.331 87.6801 111.924 88.1451 114.278 89.0789C116.621 90.0117 118.625 91.3219 120.283 93.0014C121.497 94.2379 122.452 95.7173 123.278 97.3101L133.453 87.1256C132.62 86.0902 131.742 85.0887 130.761 84.1598C127.783 81.3374 124.227 79.1283 120.103 77.5285C115.974 75.9366 111.444 75.1391 106.504 75.1391H81.841V138.301H82.3305L95.7574 124.859V87.6821L95.7564 87.6801Z" fill="black"/>
<g opacity="0.5">
<path d="M94.7336 40.6202V27C60.4192 32.0365 33.1477 58.6786 27.2522 92.6639H40.9782C46.5547 66.1313 67.8768 45.3859 94.7336 40.6202Z" fill="black"/>
<path d="M120.869 27.4102V41.1299C135.396 44.2958 148.155 52.1756 157.473 63.077L167 53.5385C155.249 40.1603 139.142 30.6915 120.869 27.4092V27.4102ZM40.6741 118.761H27C29.9418 137.92 39.6832 154.819 53.6594 167L63.1805 157.468C51.6916 147.719 43.5351 134.17 40.6741 118.761Z" fill="black"/>
</g>
<path d="M94.7336 52.99V40.6202C67.8768 45.3849 46.5547 66.1313 40.9781 92.6639H53.451C58.6099 72.8453 74.6007 57.3943 94.7336 52.99Z" fill="black"/>
<path d="M120.869 41.1309V53.6212C132.008 56.6297 141.718 63.07 148.848 71.7134L157.473 63.078C148.156 52.1766 135.396 44.2968 120.869 41.1309Z" fill="black"/>
<path d="M53.0872 118.761H40.6741C43.5361 134.17 51.6926 147.719 63.1805 157.468L71.8115 148.828C62.5814 141.269 55.8465 130.781 53.0872 118.761Z" fill="black"/>
</mask>
<g mask="url(#mask0_1_63)">
<rect width="200" height="200" fill="white"/>
</g>
</g>
<defs>
<linearGradient id="paint0_linear_1_63" x1="30.5" y1="8" x2="121.5" y2="168" gradientUnits="userSpaceOnUse">
<stop stop-color="#F77F0A"/>
<stop offset="1" stop-color="#F9AF53"/>
</linearGradient>
<clipPath id="clip0_1_63">
<rect width="200" height="200" fill="white"/>
</clipPath>
</defs>
</svg>
